<?xml version="1.0" encoding="utf-8"?>
<!-- Generator: Adobe Illustrator 21.0.0, SVG Export Plug-In . SVG Version: 6.00 Build 0)  -->
<svg version="1.1" id="Layer_1" xmlns="http://www.w3.org/2000/svg" xmlns:xlink="http://www.w3.org/1999/xlink" x="0px" y="0px"
	 viewBox="0 0 32 32" style="enable-background:new 0 0 32 32;" xml:space="preserve">
<style type="text/css">
	.st0{fill:#30D6FF;}
</style>
<g>
	<g>
		<path class="st0" d="M28,24.7c2,0,3.7-1.6,3.7-3.7S30,17.4,28,17.4c-0.2,0-0.3,0-0.5,0c0-0.1,0-0.2,0-0.2c0-1.9-1.5-3.5-3.4-3.5
			c-0.7-2.1-2.6-3.6-4.9-3.6c-0.7,0-1.4,0.1-2,0.4c-1.1-1.9-3.1-3.2-5.5-3.2c-3.5,0-6.3,2.8-6.3,6.3c0,0,0,0,0,0
			c-2.9,0.2-5.1,2.6-5.1,5.5c0,3.1,2.5,5.5,5.5,5.5H28z"/>
	</g>
</g>
</svg>
